<!-- Generator: Adobe Illustrator 21.0.0, SVG Export Plug-In . SVG Version: 6.00 Build 0)  -->
<svg version="1.1" id="Layer_1" xmlns="http://www.w3.org/2000/svg" xmlns:xlink="http://www.w3.org/1999/xlink" x="0px" y="0px"
	 viewBox="0 0 570.6 372.8" style="enable-background:new 0 0 570.6 372.8;" xml:space="preserve">
		<path fill="#E31F26" d="M285.3,0c-63.1,0-114.5,51.4-114.5,114.5v29.4v27.8v0.7h56.5V229h0.7h27.8h29.4
			c63.1,0,114.5-51.4,114.5-114.5S348.4,0,285.3,0z M285.3,200.4C285.3,200.4,285.3,200.4,285.3,200.4L285.3,200.4h-29.4v-27.9h29.4
			h0v0c31.9,0,57.9-26,57.9-57.9c0-31.9-26-57.9-57.9-57.9c-31.9,0-57.9,26-57.9,57.9v29.4h-27.9v-29.4c0-47.4,38.5-85.9,85.9-85.9
			s85.9,38.5,85.9,85.9S332.7,200.4,285.3,200.4z M255.9,114.5c0-16.2,13.2-29.3,29.4-29.3c16.2,0,29.4,13.2,29.4,29.4
			s-13.2,29.4-29.4,29.4h-29.4V114.5z"/>
</svg>
