<?xml version="1.0" encoding="iso-8859-1"?>
<!-- Generator: Adobe Illustrator 19.0.0, SVG Export Plug-In . SVG Version: 6.00 Build 0)  -->
<svg version="1.1" id="Capa_1" xmlns="http://www.w3.org/2000/svg" xmlns:xlink="http://www.w3.org/1999/xlink" x="0px" y="0px"
	 viewBox="0 0 512.005 512.005" style="enable-background:new 0 0 512.005 512.005;" xml:space="preserve">
<path style="fill:#40D9F7;" d="M46.546,418.913h418.909c25.706,0,46.546,20.84,46.546,46.546l0,0
	c0,25.706-20.84,46.546-46.546,46.546H46.546C20.839,512.004,0,491.165,0,465.459l0,0C0,439.753,20.839,418.913,46.546,418.913z"/>
<path style="fill:#009FED;" d="M46.546,418.913h46.546c25.706,0,46.545,20.84,46.545,46.546l0,0
	c0,25.706-20.839,46.546-46.546,46.546H46.546C20.839,512.004,0,491.165,0,465.459l0,0C0,439.753,20.839,418.913,46.546,418.913z"/>
<path style="fill:#00DFFA;" d="M40.401,465.459h43.051c6.172,0,12.092-2.452,16.456-6.816l16.456-16.456l-46.546-46.546
	l-41.251,41.251c-6.536,6.536-6.536,17.131,0,23.666C31.706,463.696,35.962,465.459,40.401,465.459z"/>
<path style="fill:#2B315B;" d="M63.002,412.097l36.905,36.905c9.088,9.088,23.824,9.088,32.913,0l0,0
	c4.365-4.365,10.284-6.816,16.456-6.816h27.266c6.172,0,12.092-2.452,16.456-6.816l86.273-86.276L162.909,232.731l-86.275,86.275
	c-4.364,4.365-6.816,10.284-6.816,16.456v27.266c0,6.172-2.452,12.092-6.816,16.456c-9.094,9.084-9.11,23.81-0.027,32.904
	C62.98,412.094,62.987,412.099,63.002,412.097z"/>
<g transform="matrix(0.70711 -0.70711 0.70711 0.70711 -63.37 273.67)">
	<g>
		<path id="SVGCleanerId_0" style="fill:#00DFFA;" d="M125.953,114.599h356.392c25.706,0,46.546,20.84,46.546,46.546v104.385
			c0,25.706-20.84,46.546-46.546,46.546H125.953c-25.706,0-46.546-20.84-46.546-46.546V161.143
			C79.409,135.437,100.247,114.599,125.953,114.599z"/>
	</g>
	<g>
		<path id="SVGCleanerId_0_1_" style="fill:#00DFFA;" d="M125.953,114.599h356.392c25.706,0,46.546,20.84,46.546,46.546v104.385
			c0,25.706-20.84,46.546-46.546,46.546H125.953c-25.706,0-46.546-20.84-46.546-46.546V161.143
			C79.409,135.437,100.247,114.599,125.953,114.599z"/>
	</g>
	<g>
		<path id="SVGCleanerId_0_2_" style="fill:#00DFFA;" d="M125.953,114.599h356.392c25.706,0,46.546,20.84,46.546,46.546v104.385
			c0,25.706-20.84,46.546-46.546,46.546H125.953c-25.706,0-46.546-20.84-46.546-46.546V161.143
			C79.409,135.437,100.247,114.599,125.953,114.599z"/>
	</g>
</g>
<path style="fill:#7EEFFD;" d="M151.273,244.368L337.454,58.185c6.427-6.427,16.846-6.427,23.272,0l0,0
	c6.427,6.427,6.427,16.846,0,23.272L174.546,267.64c-6.427,6.427-16.846,6.427-23.272,0l0,0
	C144.847,261.214,144.847,250.794,151.273,244.368z"/>
<path style="fill:#1D2350;" d="M184.583,440.586L128,384.004c-6.427-6.427-16.846-6.427-23.272,0
	c-6.427,6.427-6.427,16.846,0,23.272c6.427,6.427,6.427,16.846,0,23.272c-5.385,5.48-6.188,13.985-1.923,20.376
	c9.094,6.903,21.877,6.084,30.015-1.923c4.365-4.365,10.284-6.817,16.456-6.817h27.267
	C179.296,442.134,182.019,441.593,184.583,440.586L184.583,440.586z"/>
<path style="fill:#00C3FA;" d="M99.908,458.642l4.82-4.82L81.455,430.55c-6.427-6.427-16.846-6.427-23.272,0
	c-6.427,6.427-6.427,16.846,0,23.272l0,0l11.636,11.637h13.633C89.624,465.459,95.543,463.007,99.908,458.642z"/>
<path style="fill:#00BAF2;" d="M471.101,106.727c-18.177-18.177-47.648-18.177-65.826,0l0,0L191.002,321.002
	c-9.088,9.088-23.824,9.088-32.913,0l0,0l-18.453-18.453c-12.735-12.707-33.321-12.814-46.186-0.239
	c0.8,10.993,5.508,21.336,13.274,29.158l38.507,38.507l35.304,35.304c2.08,2.068,4.358,3.929,6.801,5.555
	c1.537,0.981,3.132,1.869,4.776,2.66c0.809,0.41,1.583,0.907,2.411,1.267c2.225,0.968,4.524,1.757,6.874,2.362
	c0.182,0.047,0.359,0.117,0.542,0.16c2.542,0.641,5.133,1.066,7.745,1.269l0.009,0.001c13.582,1.198,27-3.66,36.668-13.274
	L498.367,153.27c3.23-3.322,5.94-7.112,8.038-11.242L471.101,106.727z"/>
<g>
</g>
<g>
</g>
<g>
</g>
<g>
</g>
<g>
</g>
<g>
</g>
<g>
</g>
<g>
</g>
<g>
</g>
<g>
</g>
<g>
</g>
<g>
</g>
<g>
</g>
<g>
</g>
<g>
</g>
</svg>
